<svg xmlns="http://www.w3.org/2000/svg" width="20" height="20" fill="none"><path fill="currentColor" d="M9.5 0a9.5 9.5 0 1 1 0 19 9.5 9.5 0 0 1 0-19M2.426 7.598c-.088.088-.088.088 0 .173-.234.379-.736.425-1.096.197a8.315 8.315 0 0 0 6.904 9.748l-.007-.006-.143-.07c.268-.086.622-.086.885-.086-.088-.52-.088-.952-.088-1.473 0 0-2.033-1.47-2.033-2.337s.265-1.298 0-1.298c-.443 0-.973.347-1.061 0-.177-.52-.531-.952-1.062-1.124-1.217 0-1.392-1.311-1.413-2.663l-.001-.368c0-.435-.531-.435-.885-.693m7.576-6.395.102.027c1.347.411 1.386 1.77.28 1.603 0 .431 0 .95-.087 1.47-.09.867-1.15.609-1.416 1.04-.263.434.531.866 1.416.693.265 0 0-.261.178-.347a2.6 2.6 0 0 1 1.148 0q-.541 1.17-1.238 2.253c-.178.259 0 .779 0 1.125 0 2.599-1.239-.606-1.416-.52-.177.174-.971-.173-1.325-.173s-.178.693-.53.693c-.709 0-.532-.174-.532.085 0 .347.087 1.04.087 2.08 0 .346.708-.086 1.15-.086.53 0 .884.432 1.238.605.618.262 1.237 1.127 1.68 1.212.44.089.087.78.617.693.264-.085.618.088.795.347.266.347.09.781-.264 1.04-.53.52-.707 1.125-.972 2.337.145-.047.316.074.457.22a8.32 8.32 0 0 0 5.903-5.15c-.672.715-1.448.77-1.218.165-.266-.52-.62-.954-1.062-1.386-.796-.692-1.504-1.993.973-3.812-.384-.976.566-1.888 1.17-1.204a8.31 8.31 0 0 0-7.132-5.011z"/></svg>