<svg width="16" height="16" viewBox="0 0 16 16" fill="currentColor" xmlns="http://www.w3.org/2000/svg">
<path opacity="0.5" d="M6.00016 12C6.00016 11.8674 5.94749 11.7402 5.85372 11.6464C5.75995 11.5527 5.63277 11.5 5.50016 11.5C5.36756 11.5 5.24038 11.5527 5.14661 11.6464C5.05284 11.7402 5.00016 11.8674 5.00016 12V13.1667C5.00016 13.4761 5.12308 13.7728 5.34187 13.9916C5.56067 14.2104 5.85741 14.3333 6.16683 14.3333H13.1668C13.4762 14.3333 13.773 14.2104 13.9918 13.9916C14.2106 13.7728 14.3335 13.4761 14.3335 13.1667V6.16667C14.3335 5.85725 14.2106 5.5605 13.9918 5.34171C13.773 5.12292 13.4762 5 13.1668 5H12.0002C11.8676 5 11.7404 5.05268 11.6466 5.14645C11.5528 5.24021 11.5002 5.36739 11.5002 5.5C11.5002 5.63261 11.5528 5.75978 11.6466 5.85355C11.7404 5.94732 11.8676 6 12.0002 6H13.1668C13.211 6 13.2534 6.01756 13.2847 6.04882C13.3159 6.08007 13.3335 6.12246 13.3335 6.16667V13.1667C13.3335 13.2109 13.3159 13.2533 13.2847 13.2845C13.2534 13.3158 13.211 13.3333 13.1668 13.3333H6.16683C6.12263 13.3333 6.08024 13.3158 6.04898 13.2845C6.01772 13.2533 6.00016 13.2109 6.00016 13.1667V12Z" fill="currentColor"/>
<path d="M10.1668 2H3.16683C2.85741 2 2.56067 2.12292 2.34187 2.34171C2.12308 2.5605 2.00016 2.85725 2.00016 3.16667V10.1667C2.00016 10.4761 2.12308 10.7728 2.34187 10.9916C2.56067 11.2104 2.85741 11.3333 3.16683 11.3333H10.1668C10.4762 11.3333 10.773 11.2104 10.9918 10.9916C11.2106 10.7728 11.3335 10.4761 11.3335 10.1667V3.16667C11.3335 2.85725 11.2106 2.5605 10.9918 2.34171C10.773 2.12292 10.4762 2 10.1668 2ZM10.1668 3C10.211 3 10.2534 3.01756 10.2847 3.04882C10.3159 3.08007 10.3335 3.12246 10.3335 3.16667V10.1667C10.3335 10.1886 10.3292 10.2102 10.3208 10.2304C10.3124 10.2507 10.3002 10.269 10.2847 10.2845C10.2692 10.3 10.2508 10.3123 10.2306 10.3206C10.2104 10.329 10.1887 10.3333 10.1668 10.3333H3.16683C3.12263 10.3333 3.08024 10.3158 3.04898 10.2845C3.01772 10.2533 3.00016 10.2109 3.00016 10.1667V3.16667C3.00016 3.12246 3.01772 3.08007 3.04898 3.04882C3.08024 3.01756 3.12263 3 3.16683 3H10.1668Z" fill="currentColor"/>
</svg>
