<svg width="16" height="16" viewBox="0 0 16 16" fill="none" xmlns="http://www.w3.org/2000/svg">
<path d="M13.0679 4.07397C13.2028 4.07416 13.3326 4.12552 13.4312 4.21769C13.5297 4.30986 13.5896 4.43597 13.5988 4.57058C13.608 4.70519 13.5657 4.83827 13.4806 4.94297C13.3955 5.04767 13.2739 5.11618 13.1402 5.13469L13.0679 5.13957L12.6712 5.13896L12.6716 12.0087C12.6716 13.0477 11.8603 13.8973 10.8362 13.9589L10.7172 13.9624H5.03181C3.9923 13.9624 3.14238 13.1512 3.08102 12.1276L3.07736 12.0087L3.0769 5.13896L2.53318 5.13957C2.40436 5.13959 2.27989 5.09295 2.1828 5.00829C2.08571 4.92363 2.02256 4.80667 2.00504 4.67905L2 4.60669C2.00006 4.4779 2.04675 4.35349 2.13144 4.25646C2.21612 4.15942 2.33308 4.09634 2.46068 4.07885L2.53303 4.07397H13.0679ZM11.6051 5.13896H4.14281L4.14327 12.0087C4.14332 12.2285 4.2249 12.4406 4.37222 12.6037C4.51954 12.7669 4.72213 12.8697 4.94083 12.8922L5.03165 12.8968H10.7173C10.9372 12.8968 11.1492 12.8153 11.3125 12.668C11.4757 12.5208 11.5786 12.3182 11.6011 12.0995L11.6057 12.0087L11.6051 5.13896ZM8.72578 2.66675C8.86089 2.66665 8.991 2.71789 9.08977 2.81009C9.18854 2.90229 9.2486 3.02857 9.25779 3.16337C9.26699 3.29817 9.22463 3.43143 9.13929 3.53619C9.05395 3.64094 8.93201 3.70937 8.79813 3.72762L8.72578 3.73235H6.80827C6.67316 3.73245 6.54305 3.68121 6.44428 3.58901C6.34551 3.49681 6.28545 3.37054 6.27626 3.23573C6.26707 3.10093 6.30942 2.96767 6.39476 2.86291C6.4801 2.75816 6.60204 2.68973 6.73592 2.67148L6.80827 2.66675H8.72547H8.72578Z" fill="#B5BBCB"/>
<path d="M9.39636 6.34663C9.53966 6.34646 9.67716 6.40321 9.77863 6.5044C9.8801 6.60558 9.93724 6.74292 9.93748 6.88622V10.827C9.93742 10.898 9.92338 10.9683 9.89615 11.0339C9.86892 11.0994 9.82904 11.159 9.77879 11.2091C9.72854 11.2593 9.6689 11.299 9.60329 11.3261C9.53767 11.3532 9.46735 11.3672 9.39636 11.3671C9.32537 11.3672 9.25505 11.3533 9.18942 11.3262C9.1238 11.2991 9.06415 11.2594 9.01388 11.2092C8.96362 11.1591 8.92372 11.0996 8.89648 11.034C8.86923 10.9684 8.85517 10.8982 8.85509 10.8272V6.88637C8.85517 6.81538 8.86923 6.7451 8.89648 6.67954C8.92372 6.61398 8.96362 6.55444 9.01388 6.5043C9.06415 6.45416 9.1238 6.41442 9.18942 6.38734C9.25505 6.36026 9.32537 6.34637 9.39636 6.34647V6.34663ZM6.50987 6.32983C6.58087 6.32973 6.65118 6.34362 6.71681 6.3707C6.78244 6.39778 6.84208 6.43752 6.89235 6.48766C6.94261 6.5378 6.98251 6.59734 7.00975 6.6629C7.037 6.72846 7.05106 6.79874 7.05115 6.86973V10.8186C7.05106 10.8896 7.037 10.9599 7.00975 11.0255C6.98251 11.091 6.94261 11.1506 6.89235 11.2007C6.84208 11.2508 6.78244 11.2906 6.71681 11.3177C6.65118 11.3447 6.58087 11.3586 6.50987 11.3585C6.43889 11.3586 6.36859 11.3447 6.30298 11.3176C6.23737 11.2905 6.17774 11.2508 6.12749 11.2006C6.07725 11.1505 6.03736 11.091 6.01013 11.0254C5.98289 10.9599 5.96883 10.8896 5.96875 10.8186V6.86973C5.96883 6.79875 5.98289 6.72848 6.01013 6.66294C6.03736 6.59739 6.07725 6.53785 6.12749 6.48771C6.17774 6.43758 6.23737 6.39783 6.30298 6.37074C6.36859 6.34366 6.43889 6.32975 6.50987 6.32983Z" fill="#B5BBCB"/>
</svg>
