<svg width="18" height="18" viewBox="0 0 18 18" fill="none" xmlns="http://www.w3.org/2000/svg">
<g clip-path="url(#clip0_3950_19491)">
<path d="M9 0C11.3869 0 13.6761 0.948212 15.364 2.63604C17.0518 4.32387 18 6.61305 18 9C18 11.3869 17.0518 13.6761 15.364 15.364C13.6761 17.0518 11.3869 18 9 18C6.61305 18 4.32387 17.0518 2.63604 15.364C0.948212 13.6761 0 11.3869 0 9C0 6.61305 0.948212 4.32387 2.63604 2.63604C4.32387 0.948212 6.61305 0 9 0ZM2.29837 7.19775C2.21512 7.281 2.21512 7.281 2.29837 7.362C2.07675 7.72088 1.60088 7.76475 1.26 7.54875C1.06567 8.58636 1.08188 9.65244 1.30766 10.6837C1.53345 11.7149 1.9642 12.6902 2.57434 13.5517C3.18447 14.4131 3.96153 15.1432 4.85936 15.6984C5.75719 16.2537 6.75746 16.6228 7.80075 16.7839L7.794 16.7782L7.659 16.7108C7.91213 16.6298 8.24737 16.6297 8.49712 16.6297C8.41387 16.137 8.41388 15.7286 8.41388 15.2347C8.41388 15.2347 6.48788 13.842 6.48788 13.0208C6.48788 12.1995 6.73875 11.7911 6.48788 11.7911C6.06825 11.7911 5.56538 12.1196 5.48213 11.7911C5.3145 11.2984 4.97925 10.8889 4.47638 10.7258C3.32325 10.7258 3.15788 9.48375 3.13763 8.2035L3.1365 7.85475C3.1365 7.443 2.63362 7.443 2.29837 7.19775ZM9.47588 1.13963L9.57262 1.1655C10.8484 1.55475 10.8855 2.84175 9.83812 2.68425C9.83812 3.09262 9.83812 3.58425 9.75487 4.077C9.6705 4.89825 8.66475 4.653 8.41388 5.0625C8.16413 5.47313 8.91675 5.88263 9.75487 5.71838C10.0057 5.71838 9.75488 5.47087 9.92363 5.38987C10.2578 5.30887 10.6763 5.30887 11.0115 5.38987C10.6702 6.12753 10.2781 6.84061 9.83812 7.524C9.66937 7.76925 9.83812 8.262 9.83812 8.58938C9.83812 11.052 8.66475 8.01562 8.49712 8.09775C8.3295 8.262 7.57687 7.9335 7.24162 7.9335C6.90637 7.9335 7.07287 8.58938 6.73875 8.58938C6.06825 8.58938 6.23588 8.42512 6.23588 8.67037C6.23588 8.99887 6.318 9.65588 6.318 10.6403C6.318 10.9688 6.9885 10.5592 7.407 10.5592C7.90988 10.5592 8.24512 10.9687 8.58037 11.133C9.16537 11.3805 9.75263 12.2006 10.1711 12.2805C10.5896 12.3649 10.2544 13.0196 10.7561 12.9375C11.007 12.8565 11.3422 13.0207 11.5099 13.266C11.7619 13.5945 11.5943 14.0063 11.259 14.2515C10.7573 14.7431 10.5896 15.3169 10.3387 16.4655C10.476 16.4205 10.638 16.5353 10.7719 16.6736C12.0327 16.3818 13.2024 15.7842 14.1777 14.9335C15.153 14.0828 15.9039 13.0052 16.3642 11.7956C15.7275 12.4717 14.9918 12.5235 15.21 11.9509C14.958 11.4593 14.6228 11.0475 14.2043 10.638C13.4494 9.98213 12.7789 8.75025 15.1256 7.02675C14.7622 6.102 15.6623 5.238 16.2338 5.886C15.6574 4.54675 14.7205 3.39379 13.5276 2.55557C12.3346 1.71735 10.9323 1.22678 9.477 1.1385L9.47588 1.13963Z" fill="currentColor"/>
</g>
<defs>
<clipPath id="clip0_3950_19491">
<rect width="18" height="18" fill="currentColor"/>
</clipPath>
</defs>
</svg>
