<svg width="24" height="24" viewBox="0 0 24 24" fill="none" xmlns="http://www.w3.org/2000/svg">
<path d="M19.8094 6.8944L16.1081 3.19302C15.9832 3.06812 15.8174 3 15.6426 3C15.4677 3 15.3019 3.06812 15.177 3.19302L5.1061 13.2594C5.00845 13.3457 4.93579 13.4661 4.91081 13.6046L4.01612 18.1757C3.97979 18.3732 4.0411 18.5753 4.18189 18.7184C4.2977 18.8365 4.45438 18.9001 4.61788 18.9001C4.65194 18.9001 4.68827 18.8978 4.72233 18.891L9.33885 18.0939C9.47509 18.0803 9.60907 18.0213 9.71353 17.9168L19.8072 7.82315C19.9321 7.69826 20.0002 7.53249 20.0002 7.35764C20.0002 7.18279 19.9343 7.0193 19.8094 6.8944ZM8.98687 16.9131L5.38313 17.5353L6.08027 14.0224L13.1697 6.933L16.0672 9.8328L8.98687 16.9131ZM16.9346 8.96536L14.0348 6.06556L15.6403 4.46012L18.5401 7.35991L16.9346 8.96536Z" fill="#B5BBCB"/>
<path d="M18.8668 20.6535H4.61311C4.27477 20.6535 4 20.3787 4 20.0404C4 19.702 4.27477 19.4272 4.61311 19.4272H18.8691C19.2075 19.4272 19.4822 19.702 19.4822 20.0404C19.4822 20.3787 19.2052 20.6535 18.8668 20.6535Z" fill="#B5BBCB"/>
</svg>
