<svg width="24" height="24" viewBox="0 0 24 24" fill="none" xmlns="http://www.w3.org/2000/svg">
<mask id="mask0_4206_8557" style="mask-type:alpha" maskUnits="userSpaceOnUse" x="0" y="0" width="24" height="24">
<rect width="24" height="24" fill="currentColor"/>
</mask>
<g mask="url(#mask0_4206_8557)">
<path fill-rule="evenodd" clip-rule="evenodd" d="M12.9225 7.38472C12.9225 6.87491 12.5092 6.46164 11.9994 6.46164C11.4896 6.46164 11.0763 6.87491 11.0763 7.38471V11.077H7.38401C6.87421 11.077 6.46094 11.4903 6.46094 12.0001C6.46094 12.5099 6.87421 12.9232 7.38401 12.9232H11.0763V16.6155C11.0763 17.1253 11.4896 17.5386 11.9994 17.5386C12.5092 17.5386 12.9225 17.1253 12.9225 16.6155V12.9232H16.6148C17.1246 12.9232 17.5379 12.5099 17.5379 12.0001C17.5379 11.4903 17.1246 11.077 16.6148 11.077H12.9225V7.38472Z" fill="currentColor"/>
</g>
</svg>
