<svg width="57" height="60" viewBox="0 0 57 60" fill="currentColor" xmlns="http://www.w3.org/2000/svg">
<path opacity="0.05" d="M44.4214 14.9024C44.4213 15.2166 44.4831 15.5277 44.6033 15.818C44.7234 16.1082 44.8996 16.372 45.1217 16.5942C45.3438 16.8164 45.6075 16.9926 45.8977 17.1129C46.1879 17.2332 46.499 17.2951 46.8131 17.2952C47.1273 17.2953 47.4384 17.2335 47.7287 17.1133C48.0189 16.9932 48.2827 16.817 48.5049 16.5949C48.7271 16.3728 48.9033 16.1091 49.0236 15.8189C49.1439 15.5287 49.2058 15.2176 49.2059 14.9035C49.2059 14.269 48.9539 13.6605 48.5052 13.2119C48.0566 12.7633 47.4481 12.5112 46.8137 12.5112C46.1792 12.5112 45.5707 12.7633 45.1221 13.2119C44.6734 13.6605 44.4214 14.268 44.4214 14.9024Z" fill="currentColor" />
<path opacity="0.1" d="M53.7166 34.7471C52.8993 34.746 52.1158 34.4209 51.5379 33.843C50.96 33.2651 50.6349 32.4816 50.6338 31.6644C50.6346 30.8469 50.9596 30.0632 51.5376 29.4851C52.1155 28.9069 52.8991 28.5817 53.7166 28.5806C54.5339 28.5817 55.3175 28.9068 55.8956 29.4846C56.4737 30.0625 56.799 30.846 56.8004 31.6633C56.799 32.4808 56.4737 33.2644 55.8957 33.8424C55.3176 34.4204 54.534 34.7458 53.7166 34.7471Z" fill="currentColor" />
<path opacity="0.2" d="M46.811 52.1322C45.8148 52.1311 44.8598 51.7349 44.1554 51.0305C43.451 50.3261 43.0548 49.3711 43.0537 48.3749C43.0548 47.3788 43.451 46.4237 44.1554 45.7194C44.8598 45.015 45.8148 44.6188 46.811 44.6177C47.8071 44.6188 48.7622 45.015 49.4666 45.7194C50.171 46.4237 50.5672 47.3788 50.5683 48.3749C50.5672 49.3711 50.171 50.3261 49.4666 51.0305C48.7622 51.7349 47.8071 52.1311 46.811 52.1322Z" fill="currentColor" />
<path opacity="0.3" d="M29.9511 59.9998C28.7168 59.9987 27.5334 59.5079 26.6606 58.6352C25.7878 57.7624 25.297 56.5789 25.2959 55.3446C25.2959 52.777 27.3845 50.6895 29.9511 50.6895C31.1852 50.6908 32.3684 51.1818 33.241 52.0545C34.1135 52.9273 34.6042 54.1105 34.6053 55.3446C34.6053 57.9122 32.5187 59.9998 29.9511 59.9998Z" fill="currentColor" />
<path opacity="0.4" d="M13.3428 53.8942C11.9299 53.8925 10.5753 53.3304 9.57634 52.3313C8.57735 51.3321 8.01553 49.9774 8.01416 48.5645C8.01608 47.152 8.57796 45.7979 9.57664 44.799C10.5753 43.8002 11.9293 43.238 13.3418 43.2358C14.7545 43.2378 16.1087 43.7998 17.1076 44.7987C18.1065 45.7976 18.6685 47.1518 18.6705 48.5645C18.6705 51.5024 16.2808 53.8942 13.3428 53.8942Z" fill="currentColor" />
<path opacity="0.6" d="M6.28351 37.9211C4.61698 37.9195 3.01923 37.2565 1.84112 36.0778C0.662997 34.8991 0.000821478 33.3011 0 31.6345C0.00164325 29.9686 0.664181 28.3713 1.84221 27.1933C3.02024 26.0153 4.61752 25.3527 6.28351 25.3511C7.94931 25.353 9.54633 26.0156 10.7241 27.1936C11.9019 28.3716 12.5643 29.9687 12.566 31.6345C12.5649 33.3007 11.9027 34.8984 10.7249 36.0768C9.547 37.2552 7.94967 37.9192 6.28351 37.9211Z" fill="currentColor" />
<path opacity="0.8" d="M13.341 21.7987C9.41197 21.7987 6.21436 18.6021 6.21436 14.6711C6.21436 10.74 9.41197 7.54346 13.341 7.54346C15.2304 7.54592 17.0417 8.29772 18.3775 9.63393C19.7134 10.9701 20.4646 12.7817 20.4666 14.6711C20.4666 18.6001 17.27 21.7987 13.341 21.7987Z" fill="currentColor"/>
<path opacity="0.95" d="M29.7333 15.6032C25.4319 15.6032 21.9312 12.1035 21.9312 7.8021C21.9312 3.50174 25.4319 0 29.7333 0C34.0347 0 37.5334 3.49967 37.5334 7.8021C37.5334 12.1035 34.0347 15.6032 29.7333 15.6032Z" fill="currentColor"/>
</svg>
