<svg width="16" height="16" viewBox="0 0 16 16" fill="none" xmlns="http://www.w3.org/2000/svg">
<path d="M8.00038 13.5555C11.0559 13.5555 13.5559 11.0555 13.5559 7.99995C13.5559 4.9444 11.0559 2.4444 8.00038 2.4444C4.94482 2.4444 2.44482 4.9444 2.44482 7.99995C2.44482 11.0555 4.94482 13.5555 8.00038 13.5555Z" stroke="#FD6161" stroke-width="0.8" stroke-linecap="round" stroke-linejoin="round"/>
<path fill-rule="evenodd" clip-rule="evenodd" d="M9.85512 6.71055C10.0113 6.55434 10.0113 6.30108 9.85512 6.14487C9.69891 5.98866 9.44564 5.98866 9.28943 6.14487L8.00005 7.43425L6.71067 6.14487C6.55447 5.98866 6.3012 5.98866 6.14499 6.14487C5.98878 6.30108 5.98878 6.55434 6.14499 6.71055L7.43437 7.99993L6.14499 9.28931C5.98878 9.44552 5.98878 9.69879 6.14499 9.855C6.3012 10.0112 6.55447 10.0112 6.71067 9.855L8.00005 8.56562L9.28943 9.855C9.44564 10.0112 9.69891 10.0112 9.85512 9.855C10.0113 9.69879 10.0113 9.44552 9.85512 9.28931L8.56574 7.99993L9.85512 6.71055Z" fill="#FD6161"/>
</svg>
