<svg xmlns="http://www.w3.org/2000/svg" width="32" height="32" class="icon" viewBox="0 0 1028 1024"><path fill="#D0000E" d="M186.585 619.936C112.255 693.126-6.483 949.95 36.04 991.82c62.891 61.918 274.466-33.952 369.99-129.473 88.015-88.01 121.48-223.541 58.614-271.948-152.524-117.457-278.06 29.537-278.06 29.537" opacity=".4"/><path fill="#D0000E" d="M367.298 652.749c35.255 33.428 20.75 107.899-32.4 166.346-53.15 58.427-124.83 78.715-160.097 45.262-35.255-33.42-20.75-107.89 32.4-166.317 53.155-58.435 124.83-78.69 160.097-45.291" opacity=".4"/><path fill="#98C2D9" d="m609.347 619.262 8.98 5.276s38.516 135.09 10.376 188.994c-32.433 62.08-148.134 142.721-198.455 160.16-39.874 13.838 35.658-141.411.832-245.029z"/><path fill="#3F3F3F" d="M635.024 705.463s-78.212 77.341-195.897 119.761c0 0 2.255-27.112 1.128-42.732s0-6.965 0-6.965z"/><path fill="#BDE8FF" d="m366.924 389.118 4.481-10.577S233.19 358.573 179.87 394.086c-53.334 35.517-224.594 221.053-86.82 204.742 137.786-16.31 169.334-17.82 169.334-17.82z"/><path fill="#98C2D9" d="M402.566 790.947s251.477-40.934 455.724-253.47C1024.454 364.569 996.597 161.52 980.432 91.813c0 0-7.506-29.271-41.134-34.514C421.676-23.53 233.423 600.572 233.423 600.572s-16.884 77.258 41.55 135.697c70.456 70.452 127.593 54.678 127.593 54.678"/><path fill="#3F3F3F" d="M451.256 779.538c-217.092-25.419-203.64-219.226-203.64-219.226h-.004c-9.633 25.168-14.189 40.26-14.189 40.26s-16.884 77.258 41.55 135.697c70.456 70.452 127.593 54.686 127.593 54.686s18.17-2.966 48.69-11.417"/><path fill="#BDE8FF" d="M939.298 57.295C421.676-23.53 233.423 600.572 233.423 600.572s-16.884 77.258 41.55 135.697a265 265 0 0 0 14.896 13.781c41.405-9.753 82.9 19.448 124.16 3.82 315.945-119.691 589.5-485.242 549.976-686.02-6.008-4.797-14.026-8.89-24.707-10.555"/><path fill="#FFF" d="M516.756 249.26C436.98 327.903 388.56 426.723 411.578 447.448c20.043 23.791 95.953-46.182 174.036-126.286 78.36-80.304 106.546-118.572 85.63-139.655-19.798-21.686-75.553-12.216-154.488 67.751"/><path fill="#3F3F3F" d="M487.002 530.765s-75.595 154.788-183.54 230.116c0 0-23.504-14.48-32.412-27.899z"/><path fill="#BDE8FF" d="M483.348 521.807c12.225 12.1-3.998 48.328-77.757 122.882-73.764 74.554-143.466 125.183-155.69 113.084-12.23-12.1 37.65-82.34 111.41-156.893 73.763-74.554 109.809-91.164 122.037-79.073"/><path fill="#BDE8FF" d="M483.348 521.807c12.225 12.1-3.998 48.328-77.757 122.882-73.764 74.554-143.466 125.183-155.69 113.084-12.23-12.1 37.65-82.34 111.41-156.893 73.763-74.554 109.809-91.164 122.037-79.073" opacity=".23"/><path fill="#00C4FF" d="M939.31 57.295c-110.104-17.193-205.296-2.476-286.952 31.327 43.439 142.267 164.349 250.707 313.57 276.176 41.633-118.222 25.418-225.959 14.512-272.989.004 0-7.502-29.267-41.13-34.514" opacity=".5"/></svg>